<svg width="17" height="19" viewBox="0 0 17 19" fill="none" xmlns="http://www.w3.org/2000/svg">
<path fill-rule="evenodd" clip-rule="evenodd" d="M12 0C12.5523 0 13 0.447715 13 1V1.83337H13.8333C15.3981 1.83337 16.6667 3.1019 16.6667 4.66671V8.33337V15.6667C16.6667 17.2315 15.3981 18.5 13.8333 18.5H2.83333C1.26853 18.5 0 17.2315 0 15.6667V8.33337V4.66671C0 3.1019 1.26853 1.83337 2.83333 1.83337H3.66797V1C3.66797 0.447715 4.11568 0 4.66797 0C5.22025 0 5.66797 0.447715 5.66797 1V1.83337H11V1C11 0.447715 11.4477 0 12 0ZM14.6667 4.66671V7.33337H2V4.66671C2 4.20647 2.3731 3.83337 2.83333 3.83337H3.66797V4.66667C3.66797 5.21895 4.11568 5.66667 4.66797 5.66667C5.22025 5.66667 5.66797 5.21895 5.66797 4.66667V3.83337H11V4.66667C11 5.21895 11.4477 5.66667 12 5.66667C12.5523 5.66667 13 5.21895 13 4.66667V3.83337H13.8333C14.2936 3.83337 14.6667 4.20647 14.6667 4.66671ZM14.6667 9.33337H2V15.6667C2 16.1269 2.3731 16.5 2.83333 16.5H13.8333C14.2936 16.5 14.6667 16.1269 14.6667 15.6667V9.33337ZM4.66797 11C4.11568 11 3.66797 11.4477 3.66797 12V13.8333C3.66797 14.3856 4.11568 14.8333 4.66797 14.8333H6.5013C7.05359 14.8333 7.5013 14.3856 7.5013 13.8333V12C7.5013 11.4477 7.05359 11 6.5013 11H4.66797Z" fill="white"/>
</svg>
