<svg width="21" height="21" viewBox="0 0 21 21" fill="none" xmlns="http://www.w3.org/2000/svg">
<path fill-rule="evenodd" clip-rule="evenodd" d="M8.28571 3.09524C8.28571 2.49035 8.77607 2 9.38095 2H11.4762C12.0811 2 12.5714 2.49035 12.5714 3.09524V5.19048C12.5714 5.79536 12.0811 6.28571 11.4762 6.28571H10.4286H9.38095C8.77607 6.28571 8.28571 5.79536 8.28571 5.19048V3.09524ZM11.4286 8.28571H11.4762C13.1856 8.28571 14.5714 6.89993 14.5714 5.19048V3.09524C14.5714 1.38579 13.1856 0 11.4762 0H9.38095C7.6715 0 6.28571 1.38579 6.28571 3.09524V5.19048C6.28571 6.89993 7.6715 8.28571 9.38095 8.28571H9.42857V9.42857H6.2381C5.41719 9.42857 4.6299 9.75468 4.04943 10.3351C3.46896 10.9156 3.14286 11.7029 3.14286 12.5238V12.5714H3.09524C1.38579 12.5714 0 13.9572 0 15.6667V17.7619C0 19.4714 1.38579 20.8571 3.09524 20.8571H5.19048C6.89993 20.8571 8.28571 19.4714 8.28571 17.7619V15.6667C8.28571 13.9572 6.89993 12.5714 5.19048 12.5714H5.14286V12.5238C5.14286 12.2333 5.25825 11.9548 5.46364 11.7494C5.66904 11.544 5.94762 11.4286 6.2381 11.4286H10.4286H14.619C14.9095 11.4286 15.1881 11.544 15.3935 11.7494C15.5989 11.9548 15.7143 12.2333 15.7143 12.5238V12.5714H15.6667C13.9572 12.5714 12.5714 13.9572 12.5714 15.6667V17.7619C12.5714 19.4714 13.9572 20.8571 15.6667 20.8571H17.7619C19.4714 20.8571 20.8571 19.4714 20.8571 17.7619V15.6667C20.8571 13.9572 19.4714 12.5714 17.7619 12.5714H17.7143V12.5238C17.7143 11.7029 17.3882 10.9156 16.8077 10.3351C16.2272 9.75468 15.44 9.42857 14.619 9.42857H11.4286V8.28571ZM3.09524 14.5714C2.49035 14.5714 2 15.0618 2 15.6667V17.7619C2 18.3668 2.49035 18.8571 3.09524 18.8571H5.19048C5.79536 18.8571 6.28571 18.3668 6.28571 17.7619V15.6667C6.28571 15.0618 5.79536 14.5714 5.19048 14.5714L4.14286 14.5714L3.09524 14.5714ZM15.6667 14.5714L16.7143 14.5714L17.7619 14.5714C18.3668 14.5714 18.8571 15.0618 18.8571 15.6667V17.7619C18.8571 18.3668 18.3668 18.8571 17.7619 18.8571H15.6667C15.0618 18.8571 14.5714 18.3668 14.5714 17.7619V15.6667C14.5714 15.0618 15.0618 14.5714 15.6667 14.5714Z" fill="white"/>
</svg>
