<svg width="22" height="22" viewBox="0 0 22 22" fill="none" xmlns="http://www.w3.org/2000/svg">
<path d="M17.416 3.6665H4.58268C4.07642 3.6665 3.66602 4.07691 3.66602 4.58317V6.4165C3.66602 6.92277 4.07642 7.33317 4.58268 7.33317H17.416C17.9223 7.33317 18.3327 6.92277 18.3327 6.4165V4.58317C18.3327 4.07691 17.9223 3.6665 17.416 3.6665Z" stroke="white" stroke-width="2" stroke-linecap="round" stroke-linejoin="round"/>
<path d="M8.24935 11H4.58268C4.07642 11 3.66602 11.4104 3.66602 11.9167V17.4167C3.66602 17.9229 4.07642 18.3333 4.58268 18.3333H8.24935C8.75561 18.3333 9.16602 17.9229 9.16602 17.4167V11.9167C9.16602 11.4104 8.75561 11 8.24935 11Z" stroke="white" stroke-width="2" stroke-linecap="round" stroke-linejoin="round"/>
<path d="M12.834 11H18.334" stroke="white" stroke-width="2" stroke-linecap="round" stroke-linejoin="round"/>
<path d="M12.834 14.6665H18.334" stroke="white" stroke-width="2" stroke-linecap="round" stroke-linejoin="round"/>
<path d="M12.834 18.3335H18.334" stroke="white" stroke-width="2" stroke-linecap="round" stroke-linejoin="round"/>
</svg>
