<svg width="19" height="19" viewBox="0 0 19 19" fill="none" xmlns="http://www.w3.org/2000/svg">
<path fill-rule="evenodd" clip-rule="evenodd" d="M2 3.66667V2H3.66667V2.79695C3.66623 2.80904 3.66602 2.82118 3.66602 2.83337C3.66602 2.84557 3.66623 2.85771 3.66667 2.8698V3.66667H2.84311L2.83398 3.66663L2.82486 3.66667H2ZM3.75 0C4.78064 0 5.62128 0.81347 5.66489 1.83337H12.8358C12.8794 0.81347 13.72 0 14.7507 0H16.584C17.6425 0 18.5007 0.858121 18.5007 1.91667V3.75C18.5007 4.78106 17.6865 5.62197 16.666 5.66494V12.8351C17.6865 12.8781 18.5007 13.719 18.5007 14.75V16.5834C18.5007 17.6419 17.6425 18.5 16.584 18.5H14.7507C13.72 18.5 12.8793 17.6865 12.8358 16.6666H5.66489C5.6213 17.6865 4.78065 18.5 3.75 18.5H1.91667C0.858121 18.5 0 17.6419 0 16.5834V14.75C0 13.7192 0.813795 12.8784 1.83398 12.8351V5.66492C0.813795 5.62162 0 4.78084 0 3.75V1.91667C0 0.858121 0.858121 0 1.91667 0H3.75ZM3.66667 15.6302C3.66623 15.6423 3.66602 15.6544 3.66602 15.6666C3.66602 15.6788 3.66623 15.691 3.66667 15.7031V16.5H2V14.8334H3.66667V15.6302ZM5.66488 14.6666H12.8358C12.8782 13.6748 13.6744 12.8783 14.666 12.8352V5.66483C13.6744 5.62174 12.8782 4.82518 12.8358 3.83337H5.66489C5.62243 4.82539 4.82592 5.62209 3.83398 5.66486V12.8352C4.82591 12.8779 5.62241 13.6746 5.66488 14.6666ZM14.834 3.66667V2H16.5007V3.66667H15.6751L15.666 3.66663L15.6569 3.66667H14.834ZM14.834 14.8334V16.5H16.5007V14.8334H14.834Z" fill="white"/>
</svg>
