<svg width="19" height="17" viewBox="0 0 19 17" fill="none" xmlns="http://www.w3.org/2000/svg">
<path fill-rule="evenodd" clip-rule="evenodd" d="M12.0528 1.24277C12.1868 0.706977 11.861 0.164043 11.3252 0.030094C10.7894 -0.103855 10.2465 0.221906 10.1125 0.757701L6.44587 15.4244C6.31192 15.9602 6.63769 16.5031 7.17348 16.637C7.70927 16.771 8.25221 16.4452 8.38616 15.9094L12.0528 1.24277ZM5.37377 3.95988C5.7643 4.3504 5.7643 4.98357 5.37377 5.37409L2.41421 8.33365L5.37377 11.2932C5.7643 11.6837 5.7643 12.3169 5.37377 12.7074C4.98325 13.0979 4.35008 13.0979 3.95956 12.7074L0.292893 9.04076C-0.0976311 8.65023 -0.0976311 8.01707 0.292893 7.62654L3.95956 3.95988C4.35008 3.56935 4.98325 3.56935 5.37377 3.95988ZM13.1269 3.95988C13.5174 3.56935 14.1506 3.56935 14.5411 3.95988L18.2078 7.62654C18.5983 8.01707 18.5983 8.65023 18.2078 9.04076L14.5411 12.7074C14.1506 13.0979 13.5174 13.0979 13.1269 12.7074C12.7364 12.3169 12.7364 11.6837 13.1269 11.2932L16.0864 8.33365L13.1269 5.37409C12.7364 4.98357 12.7364 4.3504 13.1269 3.95988Z" fill="white"/>
</svg>
