<svg width="22" height="22" viewBox="0 0 22 22" fill="none" xmlns="http://www.w3.org/2000/svg">
<path d="M2.75 14.6666V9.62492C2.75 9.01713 2.99144 8.43424 3.42121 8.00447C3.85098 7.57469 4.43388 7.33325 5.04167 7.33325C5.64945 7.33325 6.23235 7.57469 6.66212 8.00447C7.09189 8.43424 7.33333 9.01713 7.33333 9.62492V14.6666M7.33333 10.9999H2.75" stroke="white" stroke-width="2" stroke-linecap="round" stroke-linejoin="round"/>
<path d="M11 5.5V16.5" stroke="white" stroke-width="2" stroke-linecap="round" stroke-linejoin="round"/>
<path d="M14.666 14.6668V7.3335H17.416C17.9022 7.3335 18.3686 7.52665 18.7124 7.87047C19.0562 8.21428 19.2493 8.6806 19.2493 9.16683C19.2493 9.65306 19.0562 10.1194 18.7124 10.4632C18.3686 10.807 17.9022 11.0002 17.416 11.0002H14.666M17.416 11.0002C17.9022 11.0002 18.3686 11.1933 18.7124 11.5371C19.0562 11.881 19.2493 12.3473 19.2493 12.8335C19.2493 13.3197 19.0562 13.786 18.7124 14.1299C18.3686 14.4737 17.9022 14.6668 17.416 14.6668H14.666" stroke="white" stroke-width="2" stroke-linecap="round" stroke-linejoin="round"/>
</svg>
