<svg width="20" height="22" viewBox="0 0 20 22" fill="none" xmlns="http://www.w3.org/2000/svg">
<path d="M5.41602 5.5H3.58268C3.07642 5.5 2.66602 5.91041 2.66602 6.41667V9.16667C2.66602 9.67293 3.07642 10.0833 3.58268 10.0833H5.41602C5.92228 10.0833 6.33268 9.67293 6.33268 9.16667V6.41667C6.33268 5.91041 5.92228 5.5 5.41602 5.5Z" stroke="white" stroke-width="2" stroke-linecap="round" stroke-linejoin="round"/>
<path d="M4.5 3.66675V5.50008" stroke="white" stroke-width="2" stroke-linecap="round" stroke-linejoin="round"/>
<path d="M4.5 10.0833V18.3333" stroke="white" stroke-width="2" stroke-linecap="round" stroke-linejoin="round"/>
<path d="M10.916 12.8333H9.08268C8.57642 12.8333 8.16602 13.2437 8.16602 13.7499V16.4999C8.16602 17.0062 8.57642 17.4166 9.08268 17.4166H10.916C11.4223 17.4166 11.8327 17.0062 11.8327 16.4999V13.7499C11.8327 13.2437 11.4223 12.8333 10.916 12.8333Z" stroke="white" stroke-width="2" stroke-linecap="round" stroke-linejoin="round"/>
<path d="M10 3.66675V12.8334" stroke="white" stroke-width="2" stroke-linecap="round" stroke-linejoin="round"/>
<path d="M10 17.4167V18.3334" stroke="white" stroke-width="2" stroke-linecap="round" stroke-linejoin="round"/>
<path d="M16.416 4.58325H14.5827C14.0764 4.58325 13.666 4.99366 13.666 5.49992V9.16659C13.666 9.67285 14.0764 10.0833 14.5827 10.0833H16.416C16.9223 10.0833 17.3327 9.67285 17.3327 9.16659V5.49992C17.3327 4.99366 16.9223 4.58325 16.416 4.58325Z" stroke="white" stroke-width="2" stroke-linecap="round" stroke-linejoin="round"/>
<path d="M15.5 3.66675V4.58341" stroke="white" stroke-width="2" stroke-linecap="round" stroke-linejoin="round"/>
<path d="M15.5 10.0833V18.3333" stroke="white" stroke-width="2" stroke-linecap="round" stroke-linejoin="round"/>
</svg>
