<svg width="22" height="22" viewBox="0 0 22 22" fill="none" xmlns="http://www.w3.org/2000/svg">
<path fill-rule="evenodd" clip-rule="evenodd" d="M11.372 3.65502C11.1336 3.55965 10.8677 3.55965 10.6293 3.65502L1.46259 7.32169C1.08294 7.47355 0.833984 7.84126 0.833984 8.25016C0.833984 8.65907 1.08294 9.02678 1.46259 9.17864L4.5 10.3936V14.6668C4.5 15.9667 5.50833 16.9281 6.6637 17.5058C7.86585 18.1068 9.42609 18.4168 11 18.4168C12.5739 18.4168 14.1342 18.1068 15.3363 17.5058C16.4917 16.9281 17.5 15.9667 17.5 14.6668V10.3941L19.1673 9.7272V13.7502C19.1673 14.3024 19.615 14.7502 20.1673 14.7502C20.7196 14.7502 21.1673 14.3024 21.1673 13.7502V8.25016C21.1673 7.84126 20.9184 7.47355 20.5387 7.32169L11.372 3.65502ZM16.1593 8.77632C16.1388 8.78377 16.1185 8.79187 16.0986 8.8006L11.0007 10.8398L5.88086 8.79188C5.87444 8.78923 5.86799 8.78665 5.8615 8.78414L4.52657 8.25016L11.0007 5.66053L17.4747 8.25016L16.1593 8.77632ZM6.5 11.1936L10.6293 12.8453C10.8677 12.9407 11.1336 12.9407 11.372 12.8453L15.5 11.1941V14.6668C15.5 14.8255 15.3494 15.2631 14.4419 15.7169C13.5811 16.1473 12.3435 16.4168 11 16.4168C9.65653 16.4168 8.41888 16.1473 7.55813 15.7169C6.65059 15.2631 6.5 14.8255 6.5 14.6668V11.1936Z" fill="white"/>
</svg>
